<svg preserveAspectRatio="none" overflow="visible" style="display: block;" width="200" height="200" viewBox="0 0 200 200" fill="none" xmlns="http://www.w3.org/2000/svg">
<g id="Group 1010107193">
<circle id="Ellipse 20" cx="100" cy="100" r="100" fill="#145AA6"/>
<g id="_&#231;&#128;&#167;_1" clip-path="url(#clip0_3003_19481)">
<path id="Vector" d="M99.9995 53.1276C103.181 53.1276 106.361 53.448 109.45 54.0795C112.458 54.6951 115.416 55.6134 118.244 56.8092C121.02 57.9834 123.698 59.437 126.205 61.1297C128.688 62.8065 131.022 64.7328 133.144 66.8552C135.265 68.9767 137.192 71.3121 138.869 73.7942C140.562 76.2997 142.016 78.9779 143.19 81.7552C144.386 84.5829 145.304 87.5415 145.92 90.5495C146.551 93.6378 146.871 96.8168 146.871 99.9995C146.871 103.182 146.551 106.361 145.92 109.45C145.304 112.458 144.386 115.416 143.19 118.244C142.016 121.02 140.562 123.698 138.869 126.205C137.193 128.688 135.266 131.022 133.144 133.144C131.021 135.265 128.687 137.192 126.205 138.869C123.699 140.562 121.021 142.016 118.244 143.19C115.416 144.386 112.458 145.304 109.45 145.92C106.361 146.551 103.182 146.871 99.9995 146.871C96.8168 146.871 93.6378 146.551 90.5495 145.92C87.5415 145.304 84.5829 144.386 81.7552 143.19C78.9789 142.016 76.3006 140.562 73.7942 138.869C71.3112 137.193 68.9767 135.266 66.8552 133.144C64.7337 131.021 62.8075 128.687 61.1297 126.205C59.437 123.699 57.9834 121.021 56.8092 118.244C55.6134 115.416 54.6951 112.458 54.0795 109.45C53.448 106.361 53.1276 103.182 53.1276 99.9995C53.1276 96.8168 53.448 93.6378 54.0795 90.5495C54.6951 87.5415 55.6134 84.5829 56.8092 81.7552C57.9834 78.9789 59.437 76.3006 61.1297 73.7942C62.8065 71.3112 64.7328 68.9767 66.8552 66.8552C68.9767 64.7337 71.3121 62.8075 73.7942 61.1297C76.2997 59.437 78.9779 57.9834 81.7552 56.8092C84.5829 55.6134 87.5415 54.6951 90.5495 54.0795C93.6378 53.448 96.8168 53.1276 99.9995 53.1276ZM99.9995 50C72.3855 50 50 72.3855 50 99.9995C50 127.614 72.3855 149.999 99.9995 149.999C127.614 149.999 149.999 127.614 149.999 99.9995C149.999 72.3855 127.614 50 99.9995 50Z" fill="white"/>
<path id="Vector_2" d="M126.395 107.832C125.721 107.832 125.123 108.264 124.911 108.904C124.692 109.563 124.447 110.214 124.175 110.857C122.853 113.982 120.961 116.788 118.551 119.199C116.141 121.609 113.335 123.501 110.21 124.822C106.976 126.19 103.54 126.884 99.9965 126.884C96.4532 126.884 93.0174 126.191 89.7833 124.822C86.6585 123.5 83.8522 121.609 81.4421 119.199C79.0319 116.788 77.1393 113.982 75.8184 110.857C75.5465 110.214 75.3008 109.563 75.0823 108.904C74.8702 108.264 74.2723 107.832 73.5979 107.832C72.5329 107.832 71.7762 108.875 72.1116 109.886C72.3563 110.624 72.6319 111.354 72.9365 112.075C74.4153 115.573 76.533 118.714 79.23 121.41C81.9269 124.107 85.0667 126.223 88.5642 127.703C92.186 129.235 96.0319 130.012 99.9956 130.012C103.959 130.012 107.805 129.235 111.427 127.703C114.925 126.224 118.065 124.107 120.761 121.41C123.458 118.713 125.575 115.573 127.055 112.075C127.36 111.354 127.635 110.624 127.88 109.886C128.215 108.875 127.459 107.832 126.393 107.832H126.395Z" fill="white"/>
<g id="Group">
<path id="Vector_3" d="M84.9957 94.0688C88.6247 94.0688 91.5666 91.1269 91.5666 87.4979C91.5666 83.8689 88.6247 80.9269 84.9957 80.9269C81.3666 80.9269 78.4247 83.8689 78.4247 87.4979C78.4247 91.1269 81.3666 94.0688 84.9957 94.0688Z" fill="white"/>
<path id="Vector_4" d="M115.003 94.0688C118.632 94.0688 121.574 91.1269 121.574 87.4979C121.574 83.8689 118.632 80.9269 115.003 80.9269C111.374 80.9269 108.432 83.8689 108.432 87.4979C108.432 91.1269 111.374 94.0688 115.003 94.0688Z" fill="white"/>
</g>
</g>
</g>
<defs>
<clipPath id="clip0_3003_19481">
<rect width="100" height="100" fill="white" transform="translate(50 50)"/>
</clipPath>
</defs>
</svg>
