<svg xmlns="http://www.w3.org/2000/svg" width="200" height="200" viewBox="0 0 200 200" fill="none">
<circle cx="100" cy="100" r="100" fill="#145AA6"/>
<g transform="translate(56.03,68)">
<path d="M84.162 28.2088C83.1607 29.1944 81.3822 29.6462 80.0084 29.7221L80.6888 33.6882C82.9819 33.3716 85.4617 33.5739 86.7421 35.7371C88.1726 38.1532 87.7364 43.2915 87.487 46.0958C86.613 55.9442 82.6504 58.5897 73.5739 61.08C58.5287 65.2065 38.7812 65.1437 23.4228 62.6797C17.0616 61.6591 4.94446 59.6198 2.13586 53.0301C0.780398 49.8508 0.148898 42.3033 0.458543 38.8457C0.788249 35.1632 3.40148 33.2425 7.02824 34.0275C7.19746 32.5735 7.33701 31.0741 7.93624 29.7221C6.21357 29.6035 4.47782 29.3628 3.35612 27.8983C1.81749 25.8878 2.00502 21.6696 2.57285 19.3155C2.77346 18.4816 3.05432 17.6486 3.59598 16.9726C0.783887 13.4994 -1.12108 8.9681 0.741147 4.56591C3.88557 -2.8673 12.3733 0.934784 18.226 2.03555C34.3781 5.07181 51.2429 5.08489 67.4508 2.37572C71.2581 1.73986 77.6769 -0.253205 81.2016 0.0267838C83.7207 0.226526 85.9205 1.99194 86.9802 4.22051C89.1695 8.82941 87.1957 13.2586 84.3382 16.9918C85.8079 19.7498 86.5406 25.8651 84.1611 28.2071L84.162 28.2088ZM43.5175 17.2561C43.5175 17.2561 44.2091 16.4423 44.5484 16.1885C47.2515 14.1701 51.5185 13.9669 54.4745 15.5369C55.2072 15.9259 55.7375 16.4292 56.4004 16.8967C59.4532 14.6717 64.1642 14.4527 66.9362 17.2448C69.5747 15.3747 73.4291 15.1558 76.0066 17.2378C78.0677 15.9294 81.2575 14.8862 83.466 16.3394C86.1664 13.0973 87.7617 8.03567 85.4678 4.14811C84.5877 2.65745 82.8188 1.55407 81.0839 1.39271C78.284 1.13278 73.1587 2.72811 70.1713 3.28198C53.5499 6.36011 36.0171 6.58514 19.3608 3.62215C16.028 3.02903 9.89791 1.1197 6.86164 1.39358C4.7203 1.58635 2.83277 3.06915 1.98845 5.01948C0.371318 8.75702 1.96315 13.2246 4.38449 16.226C6.84246 15.3276 9.47313 15.9425 11.5988 17.3521C14.2242 15.3171 18.2138 15.2735 20.8907 17.2387C22.9161 15.4384 26.2428 14.6978 28.7854 15.7297C29.5992 16.0594 30.1879 16.6194 30.8691 17.1366C34.3616 13.6206 40.0948 13.6982 43.5175 17.2578V17.2561ZM36.9268 15.8099C34.0109 15.8788 31.3349 17.4489 30.9424 20.4877C30.6075 23.0792 30.9005 28.2655 31.2817 30.911C31.4143 31.8303 31.6376 32.249 32.4845 32.6546C34.4017 33.5722 39.1345 33.3646 41.3081 33.1204C42.606 32.9747 43.0604 32.8596 43.2811 31.4666C43.7224 28.6754 43.1206 23.9043 42.9479 20.9439C42.8458 19.1899 42.8537 18.356 41.7599 17.3721C40.5763 16.308 38.5126 15.7716 36.926 15.8099H36.9268ZM49.0483 15.8169C47.7522 15.9504 46.2214 16.4772 45.2175 17.3119C44.0364 18.2932 44.1533 18.6587 44.1943 20.1511C44.2641 22.7058 44.5092 25.3008 44.6566 27.8477C44.7185 28.9101 44.6296 30.0562 44.7787 31.1247C44.8476 31.6175 44.9697 32.249 45.3431 32.6005C46.0949 33.3088 47.9258 33.3297 49.5132 33.2556C49.7705 33.2434 50.0278 33.239 50.2852 33.2442C52.123 33.2809 55.9835 33.1596 56.9499 31.8774C57.1785 31.5748 57.2003 31.5355 57.2369 31.1439C57.441 28.9293 57.1183 25.5869 56.8906 23.3199C56.7563 21.9784 56.5644 19.947 56.0393 18.7311C55.0092 16.3464 51.3929 15.5753 49.0483 15.816V15.8169ZM61.2876 16.4973C60.404 16.5321 59.3163 16.7502 58.5156 17.1244C58.158 17.291 57.2194 17.803 57.2343 18.2042C57.2343 18.2042 57.6547 19.7027 57.7629 20.2959C58.4205 23.9069 58.308 27.6916 58.7223 31.3454C58.745 31.5469 58.8209 31.7379 58.9404 31.9019C59.1314 32.1635 59.4218 32.3345 59.7428 32.3737C61.8161 32.6293 63.8694 32.645 65.8424 31.8164C67.6567 31.0549 67.7413 30.29 67.6566 28.4199C67.5598 26.2768 67.1211 20.3395 66.2454 18.6116C65.3635 16.8723 63.08 16.4257 61.2884 16.4964L61.2876 16.4973ZM25.2493 16.608C21.3774 17.0459 20.7913 19.4463 20.6238 22.8611C20.5331 24.7103 20.568 28.3972 20.9282 30.1583C21.4699 32.8011 25.7212 32.9198 27.8285 32.7863C28.4879 32.7444 29.8251 32.7191 29.9262 31.9376C30.2062 29.7657 29.6428 26.7181 29.5756 24.4573C29.5145 22.4171 29.525 20.3054 30.1251 18.349C28.9275 16.7144 27.1883 16.3891 25.2493 16.6089V16.608ZM78.2526 28.4757C80.6495 28.7339 82.8074 27.7823 83.295 27.2851C84.8921 25.6558 84.5135 19.3015 83.0665 17.6556C81.8497 16.2731 78.1157 17.0503 76.966 18.3586C77.1579 19.1995 77.4458 20.0045 77.5967 20.8593C77.854 22.316 78.0101 24.0979 78.0877 25.5807C78.1279 26.3518 78.1619 27.7334 78.2535 28.4748L78.2526 28.4757ZM6.74651 28.3623C7.53501 28.4504 8.24501 28.412 9.19401 28.378C9.474 28.3684 9.69903 28.1425 9.70689 27.8617C9.72346 27.2467 9.74962 26.2585 9.74439 26.0439C9.69903 24.1974 9.76271 21.8005 10.1884 20.0176C10.3175 19.4786 10.5163 18.9509 10.737 18.4441C9.56384 17.1994 6.07837 16.4702 4.77438 17.6634C3.32646 18.9892 3.30814 23.9811 3.77654 25.7787C4.16904 27.2886 5.1634 28.1835 6.74651 28.3614V28.3623ZM71.1473 17.0642C69.887 17.1261 68.3989 17.5483 67.5825 18.5575C67.9689 19.6199 68.1774 20.7398 68.323 21.8606C68.6362 24.2672 68.5917 26.8298 68.9048 29.211C69.0304 30.1678 69.0051 30.515 70.0117 30.8238C71.8818 31.3968 74.2246 30.938 75.7571 29.7195C76.6721 28.9912 76.8649 28.3248 76.8343 27.1735C76.7837 25.2763 76.5221 21.9095 76.0799 20.1101C75.4841 17.6861 73.5085 16.9482 71.1473 17.0642ZM19.0573 30.7392C19.3599 30.7374 19.5989 30.4836 19.585 30.1809C19.4289 26.8516 19.0643 23.2039 19.6417 19.9531C19.8781 18.6238 20.6064 18.2784 19.0049 17.5762C16.7511 16.588 12.696 16.9604 11.6537 19.5579C10.9934 21.2039 10.9027 26.2515 11.1086 28.0788C11.4418 31.0401 16.5409 30.754 19.0573 30.7383V30.7392ZM78.8012 30.3249C78.5143 29.7003 77.6926 29.5468 77.1806 30.0056C76.8378 30.3126 76.3738 30.7235 76.147 30.9023C75.8801 31.1125 75.2233 31.4352 74.7855 31.7143C74.5299 31.8774 74.3554 32.14 74.2987 32.4374C74.2691 32.5927 74.2403 32.7567 74.2325 32.8404C74.0833 34.495 74.3572 39.2871 75.8932 40.2413C76.5203 40.6312 77.4624 40.6042 78.0764 40.196C80.0616 38.8754 79.5924 33.7048 79.165 31.6437C79.0838 31.2529 78.9931 30.7383 78.803 30.324L78.8012 30.3249ZM9.48883 29.7457C8.83988 29.9358 8.48226 32.3231 8.40376 32.966C8.14994 35.0306 7.85425 41.1345 11.2717 40.5928C12.7676 40.3556 13.3188 37.4624 13.4741 36.2238C13.5735 35.4301 13.809 32.051 13.2586 31.594C13.0702 31.4378 12.0166 31.1788 11.5709 30.9023C11.4095 30.802 11.2516 30.6964 11.1068 30.5726C10.5216 30.0702 10.4902 29.4509 9.48795 29.7457H9.48883ZM15.5282 31.8757H14.6219C14.792 32.0981 14.8609 32.8421 14.8496 33.1212L14.9368 32.7706C15.0258 32.4139 15.2343 32.0981 15.5273 31.8757H15.5282ZM17.9966 32.1339C16.9325 32.2691 16.2722 32.6869 15.9879 33.7519C15.5413 35.424 15.5893 39.9622 16.3734 41.5122C17.291 43.3256 20.1232 44.1228 21.4804 42.4167C22.8253 40.7263 22.4974 36.2718 22.0674 34.2316C21.6522 32.2656 19.7795 31.9062 17.9966 32.1339ZM73.0968 32.2141L71.9629 32.3293C72.4234 32.8535 72.734 33.451 72.8709 34.14L72.7985 33.4841C72.7497 33.0393 72.8543 32.5901 73.0968 32.2132V32.2141ZM69.2206 32.816C67.8145 32.9084 66.3178 33.1553 65.8956 34.7035C65.4891 36.1924 65.695 40.7664 66.3544 42.1873C67.3243 44.2772 70.5996 44.7403 71.6777 42.5257C72.5246 40.7865 72.2708 36.7166 71.7946 34.8212C71.3663 33.1169 71.0287 32.6982 69.2206 32.8168V32.816ZM65.0495 33.4623L64.1424 33.5748C64.4468 34.3982 64.596 35.9482 64.521 36.8047C64.596 35.9482 64.5899 34.352 65.0495 33.4623ZM23.688 33.8016L23.2353 33.6891C23.4612 34.2822 23.688 36.0633 23.688 36.0633V33.8016ZM25.4656 34.0781C25.1839 34.0537 24.9431 34.277 24.9466 34.5596C24.9693 36.0991 24.8594 37.6534 24.9292 39.1885C25.0269 41.3421 25.2563 44.2946 27.7622 44.968C29.2947 45.3797 32.003 44.8337 32.8884 43.398C33.6926 42.0948 33.2477 39.035 33.2015 37.4877C33.1762 36.6442 33.1596 35.1344 33.1544 34.5212C33.1526 34.3214 33.027 34.1453 32.8395 34.0763C32.304 33.881 31.2608 33.6908 31.0008 33.6812C29.6506 33.6324 28.0579 34.1226 26.6841 34.1426C26.3754 34.147 25.8572 34.1095 25.4647 34.0746L25.4656 34.0781ZM55.1723 34.1775C54.7981 34.236 54.526 34.5631 54.5373 34.9407L54.7405 42.1288C54.7693 45.6518 60.3229 46.6392 62.2758 44.3417C63.4577 42.9514 63.2553 41.1772 63.2335 39.5287C63.2135 38.0354 63.2972 36.0947 63.1271 34.6485C63.0975 34.393 62.9963 34.1409 62.8088 33.9734C62.6805 33.8583 62.5087 33.8051 62.3369 33.8042C60.9561 33.7946 59.5727 33.594 58.1894 33.683C57.1985 33.7466 56.1762 34.0197 55.1723 34.1775ZM42.2527 34.2831C40.0241 34.3607 37.793 34.625 35.5548 34.6032C35.3219 34.6006 35.0951 34.6826 34.9207 34.8369C34.7148 35.0184 34.5988 35.2792 34.6032 35.553C34.6581 38.9626 33.7711 45.1198 37.5958 46.4674C39.5837 47.1678 42.449 46.9576 43.2671 44.7107C43.8986 42.9784 43.5829 37.7005 43.4041 35.6725C43.3299 34.8308 43.1973 34.2499 42.2527 34.2822V34.2831ZM45.9449 34.3982C45.4242 34.3912 44.9575 34.7401 44.8398 35.2469C44.7979 35.4292 44.7761 35.6158 44.7621 35.7807C44.6069 37.6037 44.7473 40.7115 44.8808 42.5833C44.975 43.9073 45.3221 45.4015 46.4735 46.2039C48.0723 47.3178 51.3816 46.8346 52.5661 45.2846C53.795 43.6762 53.3973 38.96 53.2673 36.9172C53.2167 36.127 53.4758 35.0602 52.7361 34.6224C52.58 34.5299 52.3977 34.4889 52.2163 34.4863L45.9458 34.3991L45.9449 34.3982ZM7.02911 37.1449C6.97154 36.5683 7.02911 35.3315 7.02911 35.3315C6.47437 34.9835 5.45298 35.041 5.17474 35.0611C1.15197 35.3489 1.52791 40.3704 1.7041 43.2628C1.93873 47.1137 2.26408 52.5251 5.21486 55.2778C9.95286 59.6975 24.0805 61.6914 30.5447 62.3578C43.0901 63.6513 57.366 63.4123 69.6977 60.7171C75.9569 59.3494 83.4206 57.6233 85.4163 50.7117C86.2458 47.8377 86.9898 39.8785 85.9894 37.171C85.125 34.8308 83.0115 34.6084 80.8022 34.9355C80.8022 34.9355 80.7952 38.3913 79.9456 39.9151C79.9203 39.9605 79.895 40.0067 79.8689 40.0512C78.4454 42.4525 74.8579 42.1297 73.7963 39.5479L73.4378 38.6757C73.5303 40.0616 73.4509 41.5331 72.8901 42.8319C71.2564 46.6183 65.9977 45.6483 64.944 42.012L64.5986 40.4899C64.466 41.9919 64.4198 43.234 63.6365 44.5711C61.9444 47.46 57.3128 47.4338 54.9638 45.4198C54.7091 45.2009 54.1727 44.6819 54.1727 44.6819C53.0057 48.7526 46.2319 49.3396 44.2554 45.589C42.2588 49.6214 34.9425 48.5764 33.9996 44.2283C33.2093 45.3614 31.0715 46.1813 29.6995 46.3287C27.7483 46.538 25.7517 45.9135 24.7312 44.149C23.9488 42.797 23.8528 41.329 23.6871 39.8096L23.3417 41.4459C22.6108 44.0443 20.445 45.1581 17.8588 44.3356C15.2308 43.4991 14.526 40.8275 14.5086 38.3364C14.0751 39.3926 13.133 41.5567 11.4784 41.8218C8.59042 42.2841 7.27421 39.595 7.02999 37.1466L7.02911 37.1449Z" fill="white"/>
</g>
<g transform="translate(148.03,81.03)">
<path d="M10.8489 0.143098C11.135 0.393431 11.1166 0.849611 10.793 1.22729C10.7608 1.2648 10.7233 1.29707 10.6831 1.32498L1.27168 8.01505C0.836437 8.38749 0.350602 8.35348 0.0959088 7.96533C-0.0244601 7.78216 -0.0279469 7.54491 0.0653826 7.34691L0.127308 7.21521C0.176153 7.11228 0.250292 7.02418 0.343621 6.95877L10.0682 0.123909C10.3046 -0.0418161 10.6317 -0.0470495 10.8489 0.143098Z" fill="white"/>
<path d="M1.35333 19.4545L11.5873 24.093C11.8943 24.2326 12.0191 24.6024 11.8586 24.899L11.7443 25.1092C11.5969 25.3813 11.262 25.4895 10.9828 25.356L0.863135 20.5073C0.586636 20.3747 0.460157 20.0502 0.575293 19.765C0.69915 19.4588 1.05328 19.3175 1.35333 19.4536V19.4545Z" fill="white"/>
<path d="M13.0479 11.7361C14.1251 11.6113 14.372 12.9136 13.2791 13.1099L1.91817 14.8412C1.79693 14.8596 1.67219 14.8604 1.55357 14.829C0.872352 14.6476 0.818275 13.7466 1.78472 13.4736C1.82309 13.4631 1.86234 13.4553 1.90159 13.4492L13.0479 11.7352V11.7361Z" fill="white"/>
</g>
<g transform="translate(38,80.97)">
<path d="M12.765 19.333C12.9037 19.2693 13.059 19.2388 13.209 19.2684C13.8492 19.394 13.9661 20.3387 13.2369 20.6317L2.57816 25.6253C2.53194 25.6471 2.48309 25.6663 2.43337 25.6768C1.50269 25.8783 1.11019 24.8106 1.97196 24.3257L12.765 19.333Z" fill="white"/>
<path d="M3.49951 0.00615009C3.76903 -0.0357173 4.05862 0.148325 4.28017 0.288756C4.29063 0.295734 4.3011 0.302711 4.31157 0.309689L13.6951 7.05122C13.7675 7.10355 13.8312 7.16897 13.8748 7.2466C14.0588 7.57718 14.0161 7.92782 13.7893 8.14064C13.5756 8.34126 13.2424 8.34475 13.0034 8.17641L3.21604 1.29532C3.13753 1.24037 3.0695 1.17059 3.02502 1.08511C2.81306 0.679519 2.99798 0.0846524 3.50038 0.00702318L3.49951 0.00615009Z" fill="white"/>
<path d="M0.798602 11.818L12.4151 13.6244C12.5895 13.6515 12.7526 13.7422 12.8477 13.8904C13.1111 14.3013 12.8154 14.897 12.2546 14.9232C12.2171 14.9249 12.1787 14.9214 12.1421 14.9153L0.777668 13.2162C-0.10242 13.088 -0.291696 12.1146 0.501168 11.8398C0.596242 11.8067 0.699167 11.8023 0.798602 11.818Z" fill="white"/>
</g>
</svg>
